<svg xmlns="http://www.w3.org/2000/svg" width="1050" height="420">
<rect width="100%" height="100%" fill="#f7f9fc"/>
<style>.box{fill:white;stroke:#1b4b7a;stroke-width:2;rx:14}.txt{font-family:Arial;font-size:20px;fill:#123}.small{font-size:15px;fill:#456}.arrow{stroke:#e5672e;stroke-width:4;marker-end:url(#m)}</style>
<defs><marker id="m" markerWidth="10" markerHeight="10" refX="6" refY="3" orient="auto"><path d="M0,0 L0,6 L7,3 z" fill="#e5672e"/></marker></defs>
<rect class="box" x="40" y="85" width="190" height="120"/><text class="txt" x="70" y="130">Fuentes</text><text class="small" x="65" y="160">ventas, clima,</text><text class="small" x="65" y="183">promos y eventos</text>
<line class="arrow" x1="230" y1="145" x2="330" y2="145"/>
<rect class="box" x="330" y="85" width="190" height="120"/><text class="txt" x="365" y="130">Apache Spark</text><text class="small" x="365" y="160">limpieza, joins,</text><text class="small" x="365" y="183">features y modelo</text>
<line class="arrow" x1="520" y1="145" x2="620" y2="145"/>
<rect class="box" x="620" y="85" width="170" height="120"/><text class="txt" x="660" y="130">MongoDB</text><text class="small" x="650" y="160">predicciones,</text><text class="small" x="650" y="183">metricas y stock</text>
<line class="arrow" x1="790" y1="145" x2="880" y2="145"/>
<rect class="box" x="880" y="85" width="140" height="120"/><text class="txt" x="915" y="130">FastAPI</text><text class="small" x="902" y="160">consulta en</text><text class="small" x="902" y="183">tiempo real</text>
<line class="arrow" x1="705" y1="205" x2="705" y2="285"/>
<rect class="box" x="570" y="285" width="270" height="95"/><text class="txt" x="610" y="325">Cuadro de mando</text><text class="small" x="615" y="353">Streamlit / Power BI ready</text>
</svg>